 <svg  version="1.0" xmlns="http://www.w3.org/2000/svg"  width="300.000000pt" height="157.000000pt" viewBox="0 0 300.000000 157.000000"  preserveAspectRatio="xMidYMid meet">  <g transform="translate(0.000000,157.000000) scale(0.100000,-0.100000)" fill="#b21515" stroke="none"> <path d="M1370 1279 c-133 -60 -196 -214 -139 -339 47 -104 127 -150 262 -150 79 0 87 2 87 19 0 26 -19 31 -113 31 -72 0 -87 3 -120 25 -77 53 -113 184 -72 265 49 97 85 113 265 120 137 5 145 6 145 25 0 19 -7 20 -135 22 -118 3 -141 0 -180 -18z"/> <path d="M1714 1242 c-12 -9 -27 -27 -33 -39 -11 -22 -17 -23 -138 -23 -109 0 -130 -3 -158 -20 -69 -43 -89 -110 -53 -180 32 -62 71 -80 176 -80 79 0 85 -2 113 -29 16 -16 29 -39 29 -51 0 -33 -26 -75 -55 -88 -31 -14 -245 -17 -245 -3 0 22 -54 71 -87 80 -103 29 -186 -96 -118 -178 29 -33 84 -56 115 -46 29 9 80 54 80 71 0 11 24 14 123 14 140 0 176 12 215 70 19 28 23 44 19 84 -4 42 -10 55 -45 88 -41 37 -43 38 -120 38 -124 0 -162 21 -162 89 0 74 29 89 179 92 l113 3 14 -32 c15 -36 67 -72 104 -72 39 0 90 37 107 77 20 48 5 103 -36 132 -36 26 -107 28 -137 3z m121 -37 c31 -30 32 -73 4 -109 -43 -55 -139 -18 -139 54 0 19 9 40 25 55 15 16 36 25 55 25 19 0 40 -9 55 -25z m-551 -447 c39 -35 42 -69 11 -106 -43 -51 -111 -40 -134 21 -29 76 62 139 123 85z"/> <path d="M1444 1055 c-11 -28 7 -35 99 -35 107 0 140 -14 183 -79 55 -84 52 -182 -8 -256 -52 -62 -93 -75 -244 -75 -101 0 -133 -3 -137 -13 -13 -34 8 -39 149 -35 157 4 188 14 256 85 122 126 81 328 -82 402 -57 26 -207 30 -216 6z"/> <path d="M2559 491 c-1 -3 0 -23 1 -43 1 -32 -2 -38 -19 -38 -14 0 -21 -6 -21 -20 0 -13 7 -20 20 -20 18 0 20 -7 20 -73 0 -43 5 -80 13 -90 7 -9 33 -20 60 -23 46 -7 47 -6 47 21 0 22 -4 26 -19 22 -38 -10 -51 10 -51 78 l0 65 35 0 c28 0 35 4 35 20 0 16 -7 20 -35 20 -34 0 -35 1 -35 39 0 33 -3 39 -25 43 -14 3 -25 2 -26 -1z"/> <path d="M183 478 c-41 -20 -49 -107 -13 -142 17 -17 36 -22 105 -25 70 -2 87 -6 95 -21 13 -25 3 -49 -25 -56 -12 -3 -59 -4 -104 -2 l-81 3 0 -29 0 -28 116 4 c114 3 116 4 141 32 21 25 24 37 20 70 -8 60 -34 76 -122 76 -92 0 -105 5 -105 40 0 36 12 40 121 40 88 0 89 0 89 25 l0 25 -107 -1 c-60 0 -118 -5 -130 -11z"/> <path d="M506 450 c6 -38 5 -40 -20 -40 -19 0 -26 -5 -26 -20 0 -15 7 -20 25 -20 25 0 25 -1 23 -75 -3 -89 8 -105 77 -113 45 -5 47 -4 43 19 -2 18 -11 25 -33 29 -29 5 -30 6 -33 73 l-3 67 36 0 c28 0 35 4 35 20 0 16 -7 20 -35 20 -34 0 -35 1 -35 40 0 38 -2 40 -30 40 -30 0 -30 -1 -24 -40z"/> <path d="M1170 451 c0 -33 -4 -40 -22 -43 -34 -5 -37 -38 -4 -38 26 0 26 -1 26 -79 0 -91 7 -101 76 -109 44 -5 46 -4 42 19 -2 17 -10 24 -27 25 -32 2 -41 20 -41 87 l0 57 35 0 c28 0 35 4 35 20 0 16 -7 20 -35 20 -34 0 -35 1 -35 40 0 36 -2 40 -25 40 -22 0 -25 -4 -25 -39z"/> <path d="M1820 465 c0 -21 5 -25 30 -25 25 0 30 4 30 25 0 21 -5 25 -30 25 -25 0 -30 -4 -30 -25z"/> <path d="M2420 465 c0 -21 5 -25 30 -25 25 0 30 4 30 25 0 21 -5 25 -30 25 -25 0 -30 -4 -30 -25z"/> <path d="M670 295 l0 -115 25 0 c25 0 25 0 25 95 0 95 0 95 25 95 24 0 30 -9 26 -37 -1 -8 10 -13 29 -13 27 0 30 3 30 29 0 47 -22 61 -96 61 l-64 0 0 -115z"/> <path d="M880 387 c0 -22 3 -23 54 -19 57 5 96 -9 96 -33 0 -11 -13 -15 -55 -15 -91 0 -127 -31 -111 -94 8 -33 51 -46 147 -46 l79 0 0 90 c0 83 -2 93 -25 115 -22 22 -32 25 -105 25 -77 0 -80 -1 -80 -23z m150 -137 c0 -28 -2 -30 -39 -30 -51 0 -71 8 -71 29 0 27 9 31 62 31 47 0 48 -1 48 -30z"/> <path d="M1375 400 c-46 -18 -71 -82 -54 -142 12 -48 39 -65 111 -74 68 -8 88 -2 81 24 -4 16 -11 19 -47 15 -50 -6 -86 10 -86 37 0 18 5 19 65 13 l65 -6 0 28 0 28 -65 -5 c-58 -5 -65 -4 -65 13 0 25 30 39 84 39 39 0 46 3 46 20 0 18 -6 20 -57 19 -32 0 -67 -4 -78 -9z"/> <path d="M1605 401 c-55 -23 -79 -101 -48 -161 20 -40 78 -65 126 -56 25 5 28 3 25 -17 -3 -20 -9 -22 -70 -25 -60 -3 -68 -5 -68 -22 0 -18 7 -20 75 -20 67 0 79 3 100 25 24 23 25 29 25 155 l0 130 -72 -1 c-40 0 -82 -4 -93 -8z m105 -107 l0 -77 -42 6 c-48 6 -68 27 -68 71 0 41 10 55 46 66 63 18 64 17 64 -66z"/> <path d="M1820 295 l0 -115 30 0 30 0 0 115 0 115 -30 0 -30 0 0 -115z"/> <path d="M1930 384 c0 -27 0 -27 65 -22 36 3 65 3 65 -1 0 -4 -29 -36 -65 -71 -42 -42 -65 -72 -65 -87 0 -22 2 -23 105 -23 l105 0 0 26 c0 25 -1 26 -65 22 -36 -1 -65 -1 -65 2 0 3 29 35 65 70 42 42 65 72 65 87 0 22 -2 23 -105 23 l-105 0 0 -26z"/> <path d="M2229 395 c-14 -8 -32 -28 -39 -45 -16 -38 -8 -105 16 -131 21 -23 74 -39 132 -39 39 0 42 2 42 26 0 25 -2 26 -43 20 -55 -8 -97 6 -97 34 0 19 4 20 70 14 l70 -7 0 28 0 27 -70 -4 c-62 -3 -70 -2 -70 14 0 23 38 38 96 38 37 0 44 3 44 20 0 18 -7 20 -62 20 -35 -1 -75 -7 -89 -15z"/> <path d="M2420 295 l0 -115 30 0 30 0 0 115 0 115 -30 0 -30 0 0 -115z"/> </g> </svg> 