<?xml version="1.0" encoding="UTF-8"?>
<svg version="1.1" xmlns="http://www.w3.org/2000/svg" width="512" height="512">
<path d="M0 0 C0.71575195 0.20367188 1.43150391 0.40734375 2.16894531 0.6171875 C19.45093656 5.70058756 35.31134823 14.33374822 49 26 C49.89074219 26.75152344 50.78148437 27.50304687 51.69921875 28.27734375 C71.04737604 45.13661098 84.99689467 67.3106208 92 92 C92 93.32 92 94.64 92 96 C92.680625 96.01417969 93.36125 96.02835937 94.0625 96.04296875 C115.83273248 97.11411051 135.3707975 107.71337519 150.3125 123.25 C165.11285395 140.30884952 172.27943683 162.60897726 170.7890625 185.0625 C168.69500662 207.95490851 157.93810463 228.15976172 140.4375 242.9375 C125.26305482 254.6778416 108.25183936 261 89 261 C89 274.2 89 287.4 89 301 C94.52363281 300.97679687 100.04726563 300.95359375 105.73828125 300.9296875 C109.23372865 300.91947068 112.72915768 300.90984291 116.22460938 300.90234375 C121.77502253 300.89037953 127.32536981 300.8762127 132.87573242 300.84912109 C137.34961355 300.82742005 141.82342406 300.81543715 146.29735374 300.81024551 C148.00582173 300.80654483 149.71428578 300.79931848 151.42272377 300.78853989 C153.81225621 300.77406129 156.20149534 300.77202052 158.59106445 300.77294922 C159.30028549 300.76575867 160.00950653 300.75856812 160.74021912 300.75115967 C164.39606891 300.76657519 165.86722567 300.91148378 169 303 C169.36076355 305.74612427 169.36076355 305.74612427 169.34057617 309.28564453 C169.34101425 309.92967224 169.34145233 310.57369995 169.34190369 311.23724365 C169.33981094 313.36940664 169.31645865 315.50078662 169.29296875 317.6328125 C169.28737448 319.10968598 169.28310359 320.58656502 169.28010559 322.06344604 C169.26864335 325.95326063 169.23916473 329.8427399 169.20599365 333.73242188 C169.17532222 337.70047469 169.16160655 341.6685816 169.14648438 345.63671875 C169.11429599 353.42463214 169.06308345 361.21226911 169 369 C169.61909744 369.12842285 170.23819489 369.2568457 170.87605286 369.38916016 C172.09333321 369.64898682 172.09333321 369.64898682 173.33520508 369.9140625 C174.13992752 370.08373535 174.94464996 370.2534082 175.77375793 370.42822266 C182.50664672 372.15746555 187.00202178 377.53969664 190.5 383.25 C194.69032372 390.74602354 195.0836608 398.58217079 194 407 C191.31397829 415.82125211 186.18543644 422.56222644 178.109375 427.05078125 C169.48029428 431.00890306 161.17056641 430.83570673 152.31640625 427.90234375 C144.91374013 425.01867449 139.21865158 419.41127792 135.66796875 412.3515625 C131.88361932 402.80376924 131.94302425 394.47648299 136 385 C140.12700778 377.76166549 146.84087011 371.33117997 155 369 C155.99 369 156.98 369 158 369 C158 350.19 158 331.38 158 312 C152.47636719 312.03480469 146.95273437 312.06960938 141.26171875 312.10546875 C137.7662655 312.120794 134.27085356 312.13523559 130.77539062 312.14648438 C125.22492897 312.16443086 119.67461552 312.18568106 114.12426758 312.22631836 C109.65037727 312.25887 105.17664583 312.27684415 100.70264626 312.28463173 C98.99416413 312.2901828 97.28569088 312.3010225 95.57727623 312.31719017 C93.18763688 312.33890904 90.79865742 312.34196931 88.40893555 312.34057617 C87.34510399 312.35675491 87.34510399 312.35675491 86.25978088 312.3732605 C83.46112875 312.355559 81.45831409 312.289043 79.05822754 310.77539062 C77.68038637 308.46378353 77.6382587 306.94114469 77.65942383 304.25317383 C77.65978638 303.27900513 77.66014893 302.30483643 77.66052246 301.30114746 C77.68354431 299.76955994 77.68354431 299.76955994 77.70703125 298.20703125 C77.71005249 297.26645874 77.71307373 296.32588623 77.71618652 295.35681152 C77.73188743 291.84192946 77.77377143 288.32720376 77.8125 284.8125 C77.874375 276.954375 77.93625 269.09625 78 261 C60.18 261 42.36 261 24 261 C24 293.01 24 325.02 24 358 C35.55 358 47.1 358 59 358 C62 361 62 361 62.34057617 364.5534668 C62.34010217 366.0188033 62.32321042 367.48419427 62.29296875 368.94921875 C62.28872391 369.72183548 62.28447906 370.49445221 62.28010559 371.29048157 C62.26332183 373.75650992 62.22567147 376.22171896 62.1875 378.6875 C62.17245271 380.36001423 62.15876438 382.03254128 62.14648438 383.70507812 C62.11341946 387.80370078 62.06164028 391.90171151 62 396 C62.91652344 396.12761719 63.83304687 396.25523437 64.77734375 396.38671875 C71.04075608 397.5786651 77.48969301 401.67475277 81.34765625 406.78515625 C86.611163 414.74947112 87.95375076 422.54700192 87 432 C84.90472195 440.71986972 79.93124589 446.9512787 72.9375 452.375 C64.62203515 456.97504438 55.30743344 457.33410239 46.08203125 455.3828125 C38.16795801 452.60981939 32.37646594 447.11037994 28.5625 439.6875 C24.86949985 431.52315438 24.48920822 422.02002971 27.625 413.5625 C31.08597078 406.18070919 36.39305192 400.23529251 44 397 C46.31 396.67 48.62 396.34 51 396 C51 387.09 51 378.18 51 369 C48.50824219 369.02320313 46.01648438 369.04640625 43.44921875 369.0703125 C41.03654489 369.08590893 38.62387665 369.09805371 36.21118164 369.10986328 C34.53407275 369.11992237 32.85698139 369.13357122 31.17993164 369.15087891 C28.76964998 369.17513152 26.35960014 369.1864839 23.94921875 369.1953125 C22.82407112 369.21079636 22.82407112 369.21079636 21.67619324 369.22659302 C17.89699221 369.227408 16.22585601 369.15057067 13 367 C12.63085651 365.09846306 12.63085651 365.09846306 12.63923645 362.73532104 C12.63511246 361.84067139 12.63098846 360.94602173 12.6267395 360.02426147 C12.63752533 359.04027374 12.64831116 358.05628601 12.65942383 357.04248047 C12.65898575 356.00830994 12.65854767 354.9741394 12.65809631 353.90863037 C12.66019239 350.47795975 12.68356234 347.04777312 12.70703125 343.6171875 C12.71262428 341.24350247 12.71689576 338.86981399 12.71989441 336.49612427 C12.73136618 330.23901867 12.76085352 323.98212094 12.79400635 317.72509766 C12.83004294 310.22282711 12.84385726 302.72048718 12.86136627 295.21815491 C12.89048933 283.81195856 12.94796081 272.40621859 13 261 C-6.14 261 -25.28 261 -45 261 C-45 315.45 -45 369.9 -45 426 C-43.02 426.33 -41.04 426.66 -39 427 C-31.62966242 430.20988534 -25.42817378 436.36307119 -22.125 443.6875 C-19.02969275 452.80146024 -19.4732246 461.04450961 -23 470 C-27.49038608 477.9704353 -34.35515888 483.11838629 -43 486 C-53.60605212 486.97089006 -62.00161856 486.37502886 -71 480 C-77.02058703 474.88128229 -81.17063496 466.8789679 -82 459 C-82.69281801 450.16657042 -80.17913184 442.56397633 -74.6015625 435.75 C-70.31925113 431.07079147 -65.97278066 428.14118552 -60 426 C-59.01 426 -58.02 426 -57 426 C-57 371.55 -57 317.1 -57 261 C-75.48 261 -93.96 261 -113 261 C-112.96519531 268.54488281 -112.93039063 276.08976562 -112.89453125 283.86328125 C-112.87920795 288.63477333 -112.86476645 293.40623521 -112.85351562 298.17773438 C-112.83556181 305.75616737 -112.8142917 313.33449194 -112.77368164 320.9128418 C-112.74115545 327.02065916 -112.72316116 333.12836029 -112.71536827 339.23625755 C-112.70981265 341.5699363 -112.69896431 343.90360848 -112.68280983 346.23723793 C-112.66112543 349.49855061 -112.65802934 352.75937912 -112.65942383 356.02075195 C-112.648638 356.99179367 -112.63785217 357.96283539 -112.6267395 358.96330261 C-112.63086349 359.85091278 -112.63498749 360.73852295 -112.63923645 361.6530304 C-112.63647107 362.42457112 -112.63370569 363.19611185 -112.63085651 363.9910326 C-113.10681362 366.58130533 -113.88766822 367.45731033 -116 369 C-118.87082157 369.26163168 -121.51986493 369.34888634 -124.38671875 369.29296875 C-125.20372757 369.28872391 -126.02073639 369.28447906 -126.86250305 369.28010559 C-129.47117107 369.26331691 -132.07906562 369.22566519 -134.6875 369.1875 C-136.45636905 369.17245337 -138.22525021 369.15876492 -139.99414062 369.14648438 C-144.32996456 369.11596473 -148.6641169 369.05724638 -153 369 C-153 377.91 -153 386.82 -153 396 C-151.02 396.33 -149.04 396.66 -147 397 C-138.74093713 400.33115536 -133.39241683 405.55509837 -129.625 413.5625 C-126.83218164 421.26035229 -126.50258846 430.20535158 -129.5625 437.875 C-133.73527921 445.75203585 -140.19812817 452.66325191 -148.78515625 455.61328125 C-156.67661708 456.99115536 -167.04987629 457.50973119 -174 453 C-181.57560028 447.30962544 -187.09794411 441.52757088 -189 432 C-189.84385701 421.79071359 -188.67010612 413.4222823 -182.3125 405.1875 C-177.18186558 399.69317504 -171.31506515 397.13030524 -164 396 C-164.02356567 394.43318481 -164.02356567 394.43318481 -164.04760742 392.8347168 C-164.10189697 388.96028348 -164.1363463 385.08588381 -164.16479492 381.21118164 C-164.17988384 379.5340408 -164.20035748 377.85693943 -164.22631836 376.17993164 C-164.26269811 373.76959496 -164.27972486 371.35977981 -164.29296875 368.94921875 C-164.30845261 368.19912033 -164.32393646 367.44902191 -164.33988953 366.67619324 C-164.34057617 364.5534668 -164.34057617 364.5534668 -164 361 C-162.515 359.515 -162.515 359.515 -161 358 C-148.79 358 -136.58 358 -124 358 C-124 325.99 -124 293.98 -124 261 C-141.68141168 261.03959387 -141.68141168 261.03959387 -159.36279297 261.09008789 C-161.57259066 261.09300735 -163.78238888 261.09555584 -165.9921875 261.09765625 C-167.1479126 261.10277222 -168.3036377 261.10788818 -169.49438477 261.11315918 C-171.1385437 261.11334045 -171.1385437 261.11334045 -172.81591797 261.11352539 C-174.24821243 261.11685631 -174.24821243 261.11685631 -175.70944214 261.12025452 C-178 261 -178 261 -180 260 C-179.99333817 260.6072139 -179.98667633 261.2144278 -179.97981262 261.84004211 C-179.91353113 268.1500622 -179.86822936 274.45998368 -179.83520508 280.77026367 C-179.82010253 283.12642431 -179.79961909 285.48255677 -179.77368164 287.83862305 C-179.73736344 291.22191312 -179.72028833 294.60483208 -179.70703125 297.98828125 C-179.69154739 299.04461258 -179.67606354 300.10094391 -179.66011047 301.18928528 C-179.65988388 302.17007553 -179.65965729 303.15086578 -179.65942383 304.16137695 C-179.64943108 305.45710381 -179.64943108 305.45710381 -179.63923645 306.77900696 C-180 309 -180 309 -181.05822754 310.78112793 C-184.0290427 312.64594149 -187.01204942 312.39223599 -190.40893555 312.34057617 C-191.16039856 312.34101425 -191.91186157 312.34145233 -192.68609619 312.34190369 C-195.16990137 312.33981367 -197.6530315 312.31647326 -200.13671875 312.29296875 C-201.85878633 312.28737354 -203.58085868 312.28310309 -205.30293274 312.28010559 C-209.83551212 312.26865091 -214.36780312 312.23917845 -218.90026855 312.20599365 C-224.33842255 312.16991078 -229.77667297 312.15613458 -235.21491241 312.13863373 C-243.47680884 312.10954137 -251.73807252 312.05205882 -260 312 C-260 330.81 -260 349.62 -260 369 C-258.02 369.33 -256.04 369.66 -254 370 C-245.2705025 374.33565042 -239.21632279 380.85887206 -236 390 C-233.47116254 398.73598396 -234.98029235 406.97244225 -239 415 C-244.04233553 422.51882438 -251.06094888 427.90848966 -260.0078125 429.71875 C-268.76940249 430.95568035 -276.92923705 429.43982825 -284.25 424.3125 C-291.15885734 418.67632691 -295.41202135 412.30311517 -296.40625 403.3359375 C-296.64970333 393.05003435 -295.28908136 385.22096713 -288.359375 377.0703125 C-283.77254614 372.76212278 -277.38224448 369 -271 369 C-271.00666183 368.1775882 -271.01332367 367.35517639 -271.02018738 366.50784302 C-271.08022999 358.76779184 -271.1259393 351.02785314 -271.15543652 343.28763008 C-271.17111101 339.30802626 -271.19238138 335.32861441 -271.22631836 331.34912109 C-271.25884887 327.51065044 -271.27683957 323.67236476 -271.28463173 319.83376694 C-271.29018666 318.36727866 -271.30103379 316.90080082 -271.31719017 315.43439102 C-271.33888161 313.38458409 -271.34197055 311.33554725 -271.34057617 309.28564453 C-271.34723801 308.11760284 -271.35389984 306.94956116 -271.36076355 305.74612427 C-271.24171158 304.83990326 -271.12265961 303.93368225 -271 303 C-267.38038388 300.58692259 -264.76926629 300.73058785 -260.59106445 300.77294922 C-259.83960144 300.77265717 -259.08813843 300.77236511 -258.31390381 300.77206421 C-255.83024547 300.77345747 -253.34688718 300.78901834 -250.86328125 300.8046875 C-249.14121159 300.80841765 -247.4191398 300.81126461 -245.69706726 300.81326294 C-241.16456238 300.82089927 -236.63218568 300.84054775 -232.09973145 300.8626709 C-226.66154377 300.8867263 -221.22331324 300.89591031 -215.78508759 300.90757751 C-207.52330258 300.92697216 -199.26179881 300.96529466 -191 301 C-191.495 280.21 -191.495 280.21 -192 259 C-197.28 257.35 -202.56 255.7 -208 254 C-210.89293751 252.78917152 -213.56659585 251.63444124 -216.3125 250.1875 C-217.29984131 249.67884399 -217.29984131 249.67884399 -218.30712891 249.15991211 C-242.42064451 236.40898626 -260.01095626 215.15593609 -268.17358398 189.29272461 C-268.80406089 187.20059471 -269.4108319 185.10409485 -270 183 C-270.25523437 182.08863281 -270.51046875 181.17726562 -270.7734375 180.23828125 C-277.21239925 152.75604594 -270.55013932 124.60784194 -256 101 C-253.52813488 97.45568546 -250.87955385 94.21571322 -248 91 C-247.55914062 90.41863281 -247.11828125 89.83726563 -246.6640625 89.23828125 C-235.01419885 74.09345851 -215.78530332 64.66794494 -198 59 C-196.95199219 58.65839844 -195.90398437 58.31679687 -194.82421875 57.96484375 C-180.47283979 54.12232012 -163.60169505 54.77566316 -149 57 C-147.96166016 55.52853516 -147.96166016 55.52853516 -146.90234375 54.02734375 C-136.03249918 38.91376688 -123.77692545 26.00028162 -108 16 C-106.33904297 14.94039062 -106.33904297 14.94039062 -104.64453125 13.859375 C-74.10323365 -4.55678143 -34.32653894 -10.01512708 0 0 Z " fill="#DFF1C0" transform="translate(307,15)"/>
<path d="M0 0 C0.71575195 0.20367188 1.43150391 0.40734375 2.16894531 0.6171875 C19.45093656 5.70058756 35.31134823 14.33374822 49 26 C49.89074219 26.75152344 50.78148437 27.50304687 51.69921875 28.27734375 C71.04737604 45.13661098 84.99689467 67.3106208 92 92 C92 93.32 92 94.64 92 96 C92.680625 96.01417969 93.36125 96.02835937 94.0625 96.04296875 C115.83273248 97.11411051 135.3707975 107.71337519 150.3125 123.25 C165.11285395 140.30884952 172.27943683 162.60897726 170.7890625 185.0625 C168.69500662 207.95490851 157.93810463 228.15976172 140.4375 242.9375 C125.26305482 254.6778416 108.25183936 261 89 261 C89 274.2 89 287.4 89 301 C94.52363281 300.97679687 100.04726563 300.95359375 105.73828125 300.9296875 C109.23372865 300.91947068 112.72915768 300.90984291 116.22460938 300.90234375 C121.77502253 300.89037953 127.32536981 300.8762127 132.87573242 300.84912109 C137.34961355 300.82742005 141.82342406 300.81543715 146.29735374 300.81024551 C148.00582173 300.80654483 149.71428578 300.79931848 151.42272377 300.78853989 C153.81225621 300.77406129 156.20149534 300.77202052 158.59106445 300.77294922 C159.30028549 300.76575867 160.00950653 300.75856812 160.74021912 300.75115967 C164.39606891 300.76657519 165.86722567 300.91148378 169 303 C169.36076355 305.74612427 169.36076355 305.74612427 169.34057617 309.28564453 C169.34101425 309.92967224 169.34145233 310.57369995 169.34190369 311.23724365 C169.33981094 313.36940664 169.31645865 315.50078662 169.29296875 317.6328125 C169.28737448 319.10968598 169.28310359 320.58656502 169.28010559 322.06344604 C169.26864335 325.95326063 169.23916473 329.8427399 169.20599365 333.73242188 C169.17532222 337.70047469 169.16160655 341.6685816 169.14648438 345.63671875 C169.11429599 353.42463214 169.06308345 361.21226911 169 369 C169.61909744 369.12842285 170.23819489 369.2568457 170.87605286 369.38916016 C172.09333321 369.64898682 172.09333321 369.64898682 173.33520508 369.9140625 C174.13992752 370.08373535 174.94464996 370.2534082 175.77375793 370.42822266 C182.50664672 372.15746555 187.00202178 377.53969664 190.5 383.25 C194.69032372 390.74602354 195.0836608 398.58217079 194 407 C191.31397829 415.82125211 186.18543644 422.56222644 178.109375 427.05078125 C169.48029428 431.00890306 161.17056641 430.83570673 152.31640625 427.90234375 C144.91374013 425.01867449 139.21865158 419.41127792 135.66796875 412.3515625 C131.88361932 402.80376924 131.94302425 394.47648299 136 385 C140.12700778 377.76166549 146.84087011 371.33117997 155 369 C155.99 369 156.98 369 158 369 C158 350.19 158 331.38 158 312 C152.47636719 312.03480469 146.95273437 312.06960938 141.26171875 312.10546875 C137.7662655 312.120794 134.27085356 312.13523559 130.77539062 312.14648438 C125.22492897 312.16443086 119.67461552 312.18568106 114.12426758 312.22631836 C109.65037727 312.25887 105.17664583 312.27684415 100.70264626 312.28463173 C98.99416413 312.2901828 97.28569088 312.3010225 95.57727623 312.31719017 C93.18763688 312.33890904 90.79865742 312.34196931 88.40893555 312.34057617 C87.34510399 312.35675491 87.34510399 312.35675491 86.25978088 312.3732605 C83.46112875 312.355559 81.45831409 312.289043 79.05822754 310.77539062 C77.68038637 308.46378353 77.6382587 306.94114469 77.65942383 304.25317383 C77.65978638 303.27900513 77.66014893 302.30483643 77.66052246 301.30114746 C77.68354431 299.76955994 77.68354431 299.76955994 77.70703125 298.20703125 C77.71005249 297.26645874 77.71307373 296.32588623 77.71618652 295.35681152 C77.73188743 291.84192946 77.77377143 288.32720376 77.8125 284.8125 C77.874375 276.954375 77.93625 269.09625 78 261 C60.18 261 42.36 261 24 261 C24 293.01 24 325.02 24 358 C35.55 358 47.1 358 59 358 C62 361 62 361 62.34057617 364.5534668 C62.34010217 366.0188033 62.32321042 367.48419427 62.29296875 368.94921875 C62.28872391 369.72183548 62.28447906 370.49445221 62.28010559 371.29048157 C62.26332183 373.75650992 62.22567147 376.22171896 62.1875 378.6875 C62.17245271 380.36001423 62.15876438 382.03254128 62.14648438 383.70507812 C62.11341946 387.80370078 62.06164028 391.90171151 62 396 C62.91652344 396.12761719 63.83304687 396.25523437 64.77734375 396.38671875 C71.04075608 397.5786651 77.48969301 401.67475277 81.34765625 406.78515625 C86.611163 414.74947112 87.95375076 422.54700192 87 432 C84.90472195 440.71986972 79.93124589 446.9512787 72.9375 452.375 C64.62203515 456.97504438 55.30743344 457.33410239 46.08203125 455.3828125 C38.16795801 452.60981939 32.37646594 447.11037994 28.5625 439.6875 C24.86949985 431.52315438 24.48920822 422.02002971 27.625 413.5625 C31.08597078 406.18070919 36.39305192 400.23529251 44 397 C46.31 396.67 48.62 396.34 51 396 C51 387.09 51 378.18 51 369 C48.50824219 369.02320313 46.01648438 369.04640625 43.44921875 369.0703125 C41.03654489 369.08590893 38.62387665 369.09805371 36.21118164 369.10986328 C34.53407275 369.11992237 32.85698139 369.13357122 31.17993164 369.15087891 C28.76964998 369.17513152 26.35960014 369.1864839 23.94921875 369.1953125 C22.82407112 369.21079636 22.82407112 369.21079636 21.67619324 369.22659302 C17.89699221 369.227408 16.22585601 369.15057067 13 367 C12.63085651 365.09846306 12.63085651 365.09846306 12.63923645 362.73532104 C12.63511246 361.84067139 12.63098846 360.94602173 12.6267395 360.02426147 C12.63752533 359.04027374 12.64831116 358.05628601 12.65942383 357.04248047 C12.65898575 356.00830994 12.65854767 354.9741394 12.65809631 353.90863037 C12.66019239 350.47795975 12.68356234 347.04777312 12.70703125 343.6171875 C12.71262428 341.24350247 12.71689576 338.86981399 12.71989441 336.49612427 C12.73136618 330.23901867 12.76085352 323.98212094 12.79400635 317.72509766 C12.83004294 310.22282711 12.84385726 302.72048718 12.86136627 295.21815491 C12.89048933 283.81195856 12.94796081 272.40621859 13 261 C-6.14 261 -25.28 261 -45 261 C-45 315.45 -45 369.9 -45 426 C-43.02 426.33 -41.04 426.66 -39 427 C-31.62966242 430.20988534 -25.42817378 436.36307119 -22.125 443.6875 C-19.02969275 452.80146024 -19.4732246 461.04450961 -23 470 C-27.49038608 477.9704353 -34.35515888 483.11838629 -43 486 C-53.60605212 486.97089006 -62.00161856 486.37502886 -71 480 C-77.02058703 474.88128229 -81.17063496 466.8789679 -82 459 C-82.69281801 450.16657042 -80.17913184 442.56397633 -74.6015625 435.75 C-70.31925113 431.07079147 -65.97278066 428.14118552 -60 426 C-59.01 426 -58.02 426 -57 426 C-57 371.55 -57 317.1 -57 261 C-75.48 261 -93.96 261 -113 261 C-112.96519531 268.54488281 -112.93039063 276.08976562 -112.89453125 283.86328125 C-112.87920795 288.63477333 -112.86476645 293.40623521 -112.85351562 298.17773438 C-112.83556181 305.75616737 -112.8142917 313.33449194 -112.77368164 320.9128418 C-112.74115545 327.02065916 -112.72316116 333.12836029 -112.71536827 339.23625755 C-112.70981265 341.5699363 -112.69896431 343.90360848 -112.68280983 346.23723793 C-112.66112543 349.49855061 -112.65802934 352.75937912 -112.65942383 356.02075195 C-112.648638 356.99179367 -112.63785217 357.96283539 -112.6267395 358.96330261 C-112.63086349 359.85091278 -112.63498749 360.73852295 -112.63923645 361.6530304 C-112.63647107 362.42457112 -112.63370569 363.19611185 -112.63085651 363.9910326 C-113.10681362 366.58130533 -113.88766822 367.45731033 -116 369 C-118.87082157 369.26163168 -121.51986493 369.34888634 -124.38671875 369.29296875 C-125.20372757 369.28872391 -126.02073639 369.28447906 -126.86250305 369.28010559 C-129.47117107 369.26331691 -132.07906562 369.22566519 -134.6875 369.1875 C-136.45636905 369.17245337 -138.22525021 369.15876492 -139.99414062 369.14648438 C-144.32996456 369.11596473 -148.6641169 369.05724638 -153 369 C-153 377.91 -153 386.82 -153 396 C-151.02 396.33 -149.04 396.66 -147 397 C-138.74093713 400.33115536 -133.39241683 405.55509837 -129.625 413.5625 C-126.83218164 421.26035229 -126.50258846 430.20535158 -129.5625 437.875 C-133.73527921 445.75203585 -140.19812817 452.66325191 -148.78515625 455.61328125 C-156.67661708 456.99115536 -167.04987629 457.50973119 -174 453 C-181.57560028 447.30962544 -187.09794411 441.52757088 -189 432 C-189.84385701 421.79071359 -188.67010612 413.4222823 -182.3125 405.1875 C-177.18186558 399.69317504 -171.31506515 397.13030524 -164 396 C-164.02356567 394.43318481 -164.02356567 394.43318481 -164.04760742 392.8347168 C-164.10189697 388.96028348 -164.1363463 385.08588381 -164.16479492 381.21118164 C-164.17988384 379.5340408 -164.20035748 377.85693943 -164.22631836 376.17993164 C-164.26269811 373.76959496 -164.27972486 371.35977981 -164.29296875 368.94921875 C-164.30845261 368.19912033 -164.32393646 367.44902191 -164.33988953 366.67619324 C-164.34057617 364.5534668 -164.34057617 364.5534668 -164 361 C-162.515 359.515 -162.515 359.515 -161 358 C-148.79 358 -136.58 358 -124 358 C-124 325.99 -124 293.98 -124 261 C-141.68141168 261.03959387 -141.68141168 261.03959387 -159.36279297 261.09008789 C-161.57259066 261.09300735 -163.78238888 261.09555584 -165.9921875 261.09765625 C-167.1479126 261.10277222 -168.3036377 261.10788818 -169.49438477 261.11315918 C-171.1385437 261.11334045 -171.1385437 261.11334045 -172.81591797 261.11352539 C-174.24821243 261.11685631 -174.24821243 261.11685631 -175.70944214 261.12025452 C-178 261 -178 261 -180 260 C-179.99333817 260.6072139 -179.98667633 261.2144278 -179.97981262 261.84004211 C-179.91353113 268.1500622 -179.86822936 274.45998368 -179.83520508 280.77026367 C-179.82010253 283.12642431 -179.79961909 285.48255677 -179.77368164 287.83862305 C-179.73736344 291.22191312 -179.72028833 294.60483208 -179.70703125 297.98828125 C-179.69154739 299.04461258 -179.67606354 300.10094391 -179.66011047 301.18928528 C-179.65988388 302.17007553 -179.65965729 303.15086578 -179.65942383 304.16137695 C-179.64943108 305.45710381 -179.64943108 305.45710381 -179.63923645 306.77900696 C-180 309 -180 309 -181.05822754 310.78112793 C-184.0290427 312.64594149 -187.01204942 312.39223599 -190.40893555 312.34057617 C-191.16039856 312.34101425 -191.91186157 312.34145233 -192.68609619 312.34190369 C-195.16990137 312.33981367 -197.6530315 312.31647326 -200.13671875 312.29296875 C-201.85878633 312.28737354 -203.58085868 312.28310309 -205.30293274 312.28010559 C-209.83551212 312.26865091 -214.36780312 312.23917845 -218.90026855 312.20599365 C-224.33842255 312.16991078 -229.77667297 312.15613458 -235.21491241 312.13863373 C-243.47680884 312.10954137 -251.73807252 312.05205882 -260 312 C-260 330.81 -260 349.62 -260 369 C-258.02 369.33 -256.04 369.66 -254 370 C-245.2705025 374.33565042 -239.21632279 380.85887206 -236 390 C-233.47116254 398.73598396 -234.98029235 406.97244225 -239 415 C-244.04233553 422.51882438 -251.06094888 427.90848966 -260.0078125 429.71875 C-268.76940249 430.95568035 -276.92923705 429.43982825 -284.25 424.3125 C-291.15885734 418.67632691 -295.41202135 412.30311517 -296.40625 403.3359375 C-296.64970333 393.05003435 -295.28908136 385.22096713 -288.359375 377.0703125 C-283.77254614 372.76212278 -277.38224448 369 -271 369 C-271.00666183 368.1775882 -271.01332367 367.35517639 -271.02018738 366.50784302 C-271.08022999 358.76779184 -271.1259393 351.02785314 -271.15543652 343.28763008 C-271.17111101 339.30802626 -271.19238138 335.32861441 -271.22631836 331.34912109 C-271.25884887 327.51065044 -271.27683957 323.67236476 -271.28463173 319.83376694 C-271.29018666 318.36727866 -271.30103379 316.90080082 -271.31719017 315.43439102 C-271.33888161 313.38458409 -271.34197055 311.33554725 -271.34057617 309.28564453 C-271.34723801 308.11760284 -271.35389984 306.94956116 -271.36076355 305.74612427 C-271.24171158 304.83990326 -271.12265961 303.93368225 -271 303 C-267.38038388 300.58692259 -264.76926629 300.73058785 -260.59106445 300.77294922 C-259.83960144 300.77265717 -259.08813843 300.77236511 -258.31390381 300.77206421 C-255.83024547 300.77345747 -253.34688718 300.78901834 -250.86328125 300.8046875 C-249.14121159 300.80841765 -247.4191398 300.81126461 -245.69706726 300.81326294 C-241.16456238 300.82089927 -236.63218568 300.84054775 -232.09973145 300.8626709 C-226.66154377 300.8867263 -221.22331324 300.89591031 -215.78508759 300.90757751 C-207.52330258 300.92697216 -199.26179881 300.96529466 -191 301 C-191.495 280.21 -191.495 280.21 -192 259 C-197.28 257.35 -202.56 255.7 -208 254 C-210.89293751 252.78917152 -213.56659585 251.63444124 -216.3125 250.1875 C-217.29984131 249.67884399 -217.29984131 249.67884399 -218.30712891 249.15991211 C-242.42064451 236.40898626 -260.01095626 215.15593609 -268.17358398 189.29272461 C-268.80406089 187.20059471 -269.4108319 185.10409485 -270 183 C-270.25523437 182.08863281 -270.51046875 181.17726562 -270.7734375 180.23828125 C-277.21239925 152.75604594 -270.55013932 124.60784194 -256 101 C-253.52813488 97.45568546 -250.87955385 94.21571322 -248 91 C-247.55914062 90.41863281 -247.11828125 89.83726563 -246.6640625 89.23828125 C-235.01419885 74.09345851 -215.78530332 64.66794494 -198 59 C-196.95199219 58.65839844 -195.90398437 58.31679687 -194.82421875 57.96484375 C-180.47283979 54.12232012 -163.60169505 54.77566316 -149 57 C-147.96166016 55.52853516 -147.96166016 55.52853516 -146.90234375 54.02734375 C-136.03249918 38.91376688 -123.77692545 26.00028162 -108 16 C-106.33904297 14.94039062 -106.33904297 14.94039062 -104.64453125 13.859375 C-74.10323365 -4.55678143 -34.32653894 -10.01512708 0 0 Z M-126.9140625 45.546875 C-131.02228383 50.00664307 -134.4882039 54.89051397 -137.87890625 59.90625 C-138.57886719 60.9271875 -139.27882813 61.948125 -140 63 C-140.62777344 63.96164063 -141.25554687 64.92328125 -141.90234375 65.9140625 C-144 68 -144 68 -146.875 68.3046875 C-147.90625 68.16289063 -148.9375 68.02109375 -150 67.875 C-151.546875 67.68550781 -151.546875 67.68550781 -153.125 67.4921875 C-156 67 -156 67 -157.86328125 66.4609375 C-177.65120162 62.19224536 -201.63397457 68.67575991 -218.375 79.3125 C-224.43331245 83.32679936 -229.79202032 87.947074 -235 93 C-235.68449219 93.61101562 -236.36898437 94.22203125 -237.07421875 94.8515625 C-252.4837761 109.08042685 -261.3724709 131.37055222 -262.2734375 152.046875 C-262.60155693 165.16589579 -261.26808892 176.5864951 -257 189 C-256.62746094 190.10601562 -256.25492187 191.21203125 -255.87109375 192.3515625 C-246.84269225 216.19660897 -227.85433451 233.38104383 -205.15478516 244.07666016 C-193.7397867 248.9680633 -181.81502868 250.14929003 -169.53988647 250.14717102 C-167.8173309 250.15268605 -167.8173309 250.15268605 -166.05997622 250.1583125 C-162.21494703 250.16931872 -158.3699449 250.17318797 -154.52490234 250.17700195 C-151.76667044 250.18273999 -149.00844254 250.18990344 -146.25021362 250.19691467 C-137.97713982 250.21662934 -129.70406488 250.22673783 -121.43097347 250.23564246 C-117.52955957 250.24003259 -113.62814701 250.24539742 -109.72673416 250.25063133 C-96.74913757 250.26763678 -83.77154179 250.28213025 -70.79393578 250.28938007 C-67.43016941 250.29128977 -64.06640306 250.29321014 -60.70263672 250.29516602 C-59.44865949 250.29589163 -59.44865949 250.29589163 -58.16934939 250.2966319 C-44.6311615 250.30492982 -31.09306203 250.33026578 -17.55491273 250.36274669 C-3.63852387 250.39586154 10.2778201 250.41383273 24.19424856 250.41702431 C32.00096018 250.41918505 39.80754276 250.4278699 47.61421585 250.45348549 C54.26317204 250.47525287 60.91196781 250.48321328 67.5609556 250.47351871 C70.94906022 250.4689916 74.33656743 250.47297428 77.72467041 250.49028015 C81.40938403 250.50804271 85.09326944 250.50087033 88.77798462 250.48774719 C90.35989308 250.50420106 90.35989308 250.50420106 91.97375929 250.52098733 C109.93241692 250.36748228 126.79399853 241.77273111 139.54980469 229.47802734 C153.37611861 215.38635992 160.26016703 196.91408295 160.2487793 177.40917969 C159.93885592 157.83272481 152.47103893 141.38293121 139.3984375 127.171875 C128.43536706 116.62921729 114.6208388 108.88206729 99.2890625 107.53125 C98.06944824 107.42369385 98.06944824 107.42369385 96.82519531 107.31396484 C95.21982795 107.19015512 93.61187266 107.09562478 92.00292969 107.03369141 C89.7734375 106.8828125 89.7734375 106.8828125 86 106 C82.99973549 101.90025967 82.0852937 96.99103571 80.8125 92.125 C72.78825415 63.41241369 51.99023392 37.75456331 26.32421875 22.80078125 C-25.51931911 -5.28367345 -85.81946454 2.76302783 -126.9140625 45.546875 Z " fill="#55733A" transform="translate(307,15)"/>
<path d="M0 0 C1.13179688 0.35191406 2.26359375 0.70382813 3.4296875 1.06640625 C16.06389085 5.25476907 27.00950477 11.19542686 37 20 C37.98226562 20.82371094 37.98226562 20.82371094 38.984375 21.6640625 C40.6875 23.1875 40.6875 23.1875 43 26 C43 28.75 43 28.75 42 31 C41.01 31.99 41.01 31.99 40 33 C35.0694085 32.79004349 32.88452412 31.41140416 29.5 27.9375 C12.22243247 11.73978044 -10.14608123 7.09604339 -33.08837891 7.82958984 C-52.097239 8.94213255 -69.5065194 18.38474753 -83.375 31.0625 C-86 33 -86 33 -88.75 32.9375 C-91 32 -91 32 -93 30 C-92.61473942 24.86598402 -90.28776498 22.64705835 -86.6875 19.24609375 C-63.2109672 -0.37455503 -29.79166297 -9.89083211 0 0 Z " fill="#57763D" transform="translate(281,103)"/>
<path d="M0 0 C5.62226749 3.37524085 9.14443779 7.79071477 11.3359375 13.96484375 C12.657707 20.12523373 10.64283922 25.74900167 7.3359375 30.96484375 C3.61257157 35.01648788 -0.61966944 38.5157485 -6.1796875 39.3359375 C-13.04329618 39.50262514 -17.43761846 38.51576101 -22.6640625 33.96484375 C-27.34522339 29.29535658 -28.84500987 25.41692018 -29.1015625 18.83984375 C-29.04054212 11.99793323 -27.40382202 7.87388039 -22.6640625 2.96484375 C-16.31258018 -2.34966187 -7.71958607 -2.99954591 0 0 Z " fill="#86A362" transform="translate(157.6640625,422.03515625)"/>
<path d="M0 0 C4.19960819 3.18499697 7.20161015 7.43686169 8.859375 12.41015625 C9.59060146 19.15901684 9.10869737 24.92829562 4.859375 30.41015625 C-1.37790857 36.0680874 -5.69776491 37.7778874 -14.09375 37.6875 C-19.74010143 37.17353724 -23.20213363 34.66812926 -26.953125 30.47265625 C-31.29494447 24.39410899 -32.14880109 18.75543921 -31.140625 11.41015625 C-28.65039348 5.21544808 -24.46698102 0.92213626 -18.390625 -1.83984375 C-11.74988877 -3.37232134 -6.05546798 -3.37895113 0 0 Z " fill="#86A362" transform="translate(482.140625,396.58984375)"/>
<path d="M0 0 C4.7155288 2.88214364 8.825347 6.39575894 10.30859375 11.88671875 C10.99898908 17.63516825 11.43390555 23.6172138 8.68359375 28.88671875 C4.4591195 34.22289675 0.02850739 38.28139187 -6.9453125 39.17578125 C-13.52106976 39.55727556 -17.67947789 38.13960228 -22.69140625 33.88671875 C-27.56670454 29.25952724 -29.37026612 24.68522559 -30.12890625 18.07421875 C-29.91880857 11.96971402 -27.03151781 7.25602089 -22.8125 2.984375 C-16.11236617 -2.25974448 -7.90438218 -3.26959205 0 0 Z " fill="#86A362" transform="translate(372.69140625,422.11328125)"/>
<path d="M0 0 C4.03792134 3.69845007 7.59488412 7.96634156 8.3359375 13.515625 C8.43843584 20.69050896 7.58414649 26.15072486 2.57421875 31.53125 C-2.83502954 36.3394707 -8.08668843 37.57865906 -15.14453125 37.4453125 C-20.63688858 36.58877524 -24.81359618 33.52556896 -28.41015625 29.37109375 C-32.27364064 23.84589564 -32.66926718 18.52777988 -32 12 C-30.35080394 6.02297735 -26.94528942 2.67367425 -22 -0.87109375 C-15.25625195 -4.67762341 -6.53612675 -3.86225672 0 0 Z " fill="#86A362" transform="translate(53,397)"/>
<path d="M0 0 C6.03572105 2.75394116 10.09968712 7.16368852 12.6796875 13.3125 C13.68390182 21.09842141 12.0604697 26.37505251 8.0546875 33 C3.62735353 37.31082518 -1.70656169 39.5026189 -7.8828125 39.8125 C-13.63682553 39.49171879 -18.14352727 37.6217852 -22.1171875 33.40625 C-26.59247877 27.6949259 -27.74256137 23.13889101 -27.66796875 15.9140625 C-26.92832773 10.37922068 -23.74761368 6.6353645 -19.7578125 2.9375 C-13.52106803 -1.22032965 -7.33165975 -2.17234363 0 0 Z " fill="#86A362" transform="translate(263.3203125,451.6875)"/>
<path d="M0 0 C1.90010333 1.22324248 3.73774762 2.4989933 5.56298828 3.83105469 C6.12187744 4.23372559 6.6807666 4.63639648 7.2565918 5.05126953 C10.04010226 7.27290923 11.00702738 8.45052058 11.53173828 12.01855469 C11.06298828 14.83105469 11.06298828 14.83105469 9.06298828 16.83105469 C5.74004366 17.35185691 4.33647167 16.99947794 1.44970703 15.22167969 C0.55896484 14.51527344 -0.33177734 13.80886719 -1.24951172 13.08105469 C-13.22570533 3.97398956 -24.23141478 2.67016975 -38.93701172 3.83105469 C-46.50566782 5.34825379 -52.09037303 8.94800456 -57.93701172 13.83105469 C-61.59841304 16.79074532 -61.59841304 16.79074532 -64.56201172 17.14355469 C-66.93701172 16.83105469 -66.93701172 16.83105469 -68.93701172 14.83105469 C-69.32763672 11.95605469 -69.32763672 11.95605469 -68.93701172 8.83105469 C-52.68771161 -10.72562509 -20.677953 -12.47870418 0 0 Z " fill="#58763D" transform="translate(284.93701171875,146.1689453125)"/>
<path d="M0 0 C1.91015625 0.4453125 1.91015625 0.4453125 4.47265625 2.5078125 C6.3464113 6.33679022 6.03978326 8.37865526 4.91015625 12.4453125 C3.84765625 14.3828125 3.84765625 14.3828125 1.91015625 15.4453125 C-1.18329153 15.83813127 -3.1355958 16.07539355 -6.08984375 15.4453125 C-9.11775416 12.87158866 -9.95147084 11.29284656 -10.58984375 7.3828125 C-10.08984375 4.4453125 -10.08984375 4.4453125 -8.58984375 2.0703125 C-5.55625142 0.09847749 -3.57053359 -0.20021684 0 0 Z " fill="#57763D" transform="translate(258.08984375,185.5546875)"/>
</svg>
